<?xml version="1.0" encoding="UTF-8"?>
<svg id="Calque_1" data-name="Calque 1" xmlns="http://www.w3.org/2000/svg" viewBox="0 0 841.89 595.28">
  <defs>
    <style>
      .cls-1 {
        stroke-width: 0px;
      }
    </style>
  </defs>
  <path class="cls-1" d="m253.72,216.4c-11.32-.02-22.63-.04-33.94,0-.43,0-1.03.48-1.21.89-.79,1.79-37.76,96.79-37.76,96.79l-1.01.04s4.81-94.87,4.89-97.68h-36.34c-11.84,53.78-23.66,107.49-35.49,161.21.04.01.14.08.23.08,7.98.01,24.96.04,24.96.04,2.01-9.84,24.06-122.03,24.06-122.03h1.14s-4.98,121.97-4.98,121.97h12.29l48.3-121.98h1.26s-29.17,120.26-29.6,121.95h27.92c11.84-53.82,23.65-107.51,35.46-161.18-.09-.05-.14-.09-.19-.09Z"/>
  <path class="cls-1" d="m378.27,252.73c-1.7-6.47-7.05-11.72-13.48-12.86-9.21-1.63-16.89.97-23.2,7.07-3.33,3.22-6.15,7.77-8.35,11.78l-1.51-.02c1.43-5.96,2.84-11.86,4.3-17.99h-2.07c-7.82,0-25.84,0-25.84,0,0,0-18.5,84.62-27.52,125.83-.81,3.7-1.69,7.39-2.55,11.15h28.02c.14-.62.26-1.18.38-1.73,6.49-29.9,12.97-59.81,19.48-89.71,1.09-4.99,2.24-9.98,5.27-14.25,2.74-3.86,6.4-6.26,11.64-5.93,4.22.26,6.41,2.33,6.4,6.32,0,1.95-.34,3.91-.76,5.81-6.35,28.77-12.75,57.53-19.13,86.29-.97,4.37-1.92,8.74-2.9,13.17.4.04.66.09.93.09,8.64,0,17.27-.02,25.91.03,1.14,0,1.26-.5,1.45-1.36,7.63-34.93,15.28-69.85,22.94-104.77,1.37-6.24,2.28-12.48.58-18.93Z"/>
  <path class="cls-1" d="m463.09,258.38c-2.54-9.51-8.5-15.93-18.77-18.33-6.62-1.54-13.26-1.65-19.88-.83-8.97,1.12-16.4,4.81-21.97,11.56-5.16,6.25-8.54,13.39-11.29,20.87-5.13,13.95-8.5,28.38-11.27,42.98-2,10.56-3.41,21.21-3.17,32.5.28,4.71.82,9.84,2.58,14.82,2.62,7.44,7.35,13.08,15.4,15.74,4.38,1.45,8.87,1.97,13.44,2,13.23.08,23.77-4.61,31.32-14.79,4.95-6.68,8.47-14.06,11.13-21.83,7.08-20.72,12.12-41.93,13.92-63.88.57-6.92.4-13.91-1.44-20.8Zm-32.86,95.91c-3.34.49-6.57-.54-8.98-4.15-3.04-4.55-4.66-9.57-6.06-14.63-4.33-15.59-7.91-31.32-10.21-47.24-.82-5.67-1.43-11.39-.63-17.07.48-3.43,2.26-7.52,7.01-8.04,5.71-.62,8.4,2.94,10.02,6.31,1.62,3.37,5.28,14.43,7.05,21.57,3.54,14.26,6.5,28.6,8.06,43.11.43,4.05,3.25,18.75-6.26,20.13Z"/>
  <path class="cls-1" d="m655.12,258.38c-2.54-9.51-8.5-15.93-18.77-18.33-6.62-1.54-13.26-1.65-19.88-.83-8.97,1.12-16.4,4.81-21.97,11.56-5.16,6.25-8.54,13.39-11.29,20.87-5.13,13.95-8.5,28.38-11.27,42.98-2,10.56-3.41,21.21-3.17,32.5.28,4.71.82,9.84,2.58,14.82,2.62,7.44,7.35,13.08,15.4,15.74,4.38,1.45,8.87,1.97,13.44,2,13.23.08,23.77-4.61,31.32-14.79,4.95-6.68,8.47-14.06,11.13-21.83,7.08-20.72,12.12-41.93,13.92-63.88.57-6.92.4-13.91-1.44-20.8Zm-32.86,95.91c-3.34.49-6.57-.54-8.98-4.15-3.04-4.55-4.66-9.57-6.06-14.63-4.33-15.59-7.91-31.32-10.21-47.24-.82-5.67-1.43-11.39-.63-17.07.48-3.43,2.26-7.52,7.01-8.04,5.71-.62,8.4,2.94,10.02,6.31,1.62,3.37,5.28,14.43,7.05,21.57,3.54,14.26,6.5,28.6,8.06,43.11.44,4.05,3.25,18.75-6.26,20.13Z"/>
  <path class="cls-1" d="m542.66,345.29c-3.24-.25-5.09-2-5.22-5.06-.06-1.54.08-3.12.41-4.61,2.13-9.52,10.07-43.34,16.94-72.53h21.76l5.49-22.34h-21.98c3.37-14.29,5.74-24.31,5.74-24.31l-27.53-.02s-2.26,9.96-5.53,24.33h-7.63l-5.49,22.34h8.04c-6.78,29.83-14.81,65.12-17.61,77.34-1.51,6.6-2.77,13.2-1.95,20.12,1.09,9.19,6.74,15.49,16.25,17.51,8.92,1.89,24.03-.31,27.58-2.06.81-7.19,1.77-15.61,2.67-22.78.42-3.32.97-6.62,1.51-10.25-.68.24-9.23,2.64-13.44,2.32Z"/>
  <path class="cls-1" d="m492.19,216.42s-27.9,125.49-33.34,150.03c-.83,3.75-2.78,11.31-2.78,11.31h28.21s35.6-161.3,35.6-161.3l-27.68-.03Z"/>
  <path class="cls-1" d="m718.53,240.01c-6.12.84-10.45,4.27-14.02,8.74-2.74,3.43-7.13,14.34-9.74,19.83l-1.25-.07c1.91-7.71,4.68-19.97,6.61-27.74h-22.18c-10.07,45.73-20.11,91.31-30.15,136.89h29.53c1.35-6.97,2.6-13.87,4.04-20.73,4.29-20.47,8.62-40.92,12.99-61.37,1.09-5.1,2.47-10.12,5.54-14.48,2.19-3.11,5.28-4.93,9.28-5.07,3.28-.11,6.59.1,9.95.17,3.13-11.51,6.36-23.4,9.61-35.37-3.38-1.06-6.81-1.28-10.22-.82Z"/>
  <path class="cls-1" d="m262.27,256.42c-10.04,45.64-17.16,75.6-27.21,121.27h27.43c10.07-45.73,17.2-75.65,27.24-121.27h-27.46Z"/>
  <ellipse class="cls-1" cx="279.99" cy="230.77" rx="17.61" ry="14.64" transform="translate(-48.27 76.19) rotate(-14.28)"/>
</svg>