<?xml version="1.0" encoding="utf-8"?>
<!-- Generator: Adobe Illustrator 27.9.0, SVG Export Plug-In . SVG Version: 6.00 Build 0)  -->
<svg version="1.1" id="Calque_1" xmlns="http://www.w3.org/2000/svg" xmlns:xlink="http://www.w3.org/1999/xlink" x="0px" y="0px"
	 viewBox="0 0 1366 768" style="enable-background:new 0 0 1366 768;" xml:space="preserve">
<g>
	<g>
		<path d="M445.54,266.17c0.06,12.46-1.28,29.97-3.76,47.33c-8.19,57.33-21.11,113.48-37.55,168.71
			c-5.99,20.12-13.25,39.74-23.73,57.9c-6.97,12.07-15.17,23.13-27.17,30.74c-11.46,7.26-24.26,9.88-37.94,9.3
			c-9.66-0.41-19.06-2.01-27.92-6.44c-11.81-5.9-18.71-15.76-22.8-27.85c-5.11-15.11-6.09-30.63-5.49-46.18
			c2.07-53.52,12.88-105.38,24.96-156.98c6.53-27.92,13.79-55.64,23.71-82.49c6.01-16.27,13.09-31.97,23.51-45.91
			c14.18-18.98,33.57-27.07,57.31-26.45c10.48,0.27,20.66,1.98,30.24,6.86c11.14,5.68,17.17,15.37,21.02,26.66
			C444.31,234.27,445.27,247.59,445.54,266.17z M375.96,258.88c-0.5-2-1.07-5.05-2.04-8c-1.35-4.11-3.05-8.15-7.21-10.41
			c-5.16-2.81-11.52-1.6-16.56,2.84c-3.92,3.45-5.85,8.03-7.48,12.78c-5.01,14.65-6.93,30-8.68,45.35
			c-4.38,38.47-6.23,77.19-7.68,115.94c-0.99,26.54-1.95,53.11,1.2,79.73c0.87,7.33,2.26,14.6,5.93,21.22
			c4.14,7.46,12.96,9.16,19.53,4.03c3.93-3.07,6.26-7.19,7.92-11.79c5.22-14.5,7.21-29.74,8.88-45
			c5.59-51.22,8.23-102.73,9.19-154.37C379.25,294.1,378.86,276.96,375.96,258.88z"/>
		<path d="M565.38,316.93c2.85-14.87,5.79-29.47,8.4-44.13c1.46-8.21,2-16.58,0.24-24.94c-2.43-11.56-11.75-16.27-22.44-11.61
			c-6.73,2.94-11.11,8.26-14.64,14.37c-7.56,13.08-12.29,27.39-16.09,42c-7.3,28.02-14.28,56.14-21.37,84.22
			c-0.12,0.46-0.34,1.09-0.37,1.54l3.24,0.35c5.25-8.85,12.33-18.51,20.7-24.61c13.82-10.07,29.29-12.75,46-7.43
			c12.36,3.94,18.62,13.73,21.74,25.64c3.12,11.91,3.28,23.97,2.1,35.98c-3.54,36.05-12.37,70.79-23.49,104.88
			c-5.15,15.77-12.04,30.76-22.64,43.65c-11.58,14.08-26.56,21.81-45.09,23.15c-10.02,0.72-19.87,0.15-29.66-2.79
			c-15.44-4.64-25.29-14.92-30.66-29.85c-5.51-15.31-6.74-31.08-6.66-46.98c0.2-38.5,6.87-75.96,14.47-113.25
			c6.72-32.97,13.95-65.81,23.77-97.94c5.47-17.9,11.54-35.56,19.87-52.28c6.98-14,15.46-26.85,28.15-36.4
			c8.57-6.45,18.28-10.25,28.94-11.74c10.97-1.53,21.98-1.42,33.03,0.91c20.43,4.31,34.36,18.34,38.8,38.96
			c4.12,19.14,2.37,37.9-1.27,56.55c-1.95,9.97-4.68,22.1-6.81,32.03c0,0-32.7-0.13-47.86-0.15
			C565.58,317.05,565.39,316.93,565.38,316.93z M467.37,492.91c-0.78,3.4-1.65,6.79-2.32,10.22c-0.34,1.75-0.44,3.58-0.47,5.39
			c-0.16,9.18,5,15.24,13.7,15.96c4.28,0.35,8.43-0.76,11.59-3.47c5.18-4.44,10.39-9,14.71-14.28
			c15.21-18.61,27.81-39.16,40.32-59.73c6.22-10.23,11.86-20.78,14.54-32.79c2.63-11.8-4.12-20.11-15.91-18.67
			c-4.17,0.51-8.38,2.1-12.11,4.06c-7.1,3.73-12.58,9.59-17.77,15.67c-11.34,13.28-20.61,28.06-29.15,43.35
			C478.28,469.75,471.74,480.72,467.37,492.91z"/>
	</g>
	<g>
		<g>
			<path d="M709.17,491.24c0.96-5.02,1.96-9.95,2.84-14.91c0.49-2.77,0.67-5.6,0.08-8.42c-0.82-3.9-3.97-5.49-7.58-3.92
				c-2.27,0.99-3.75,2.79-4.94,4.85c-2.55,4.42-4.15,9.25-5.44,14.18c-2.46,9.46-4.82,18.96-7.22,28.44
				c-0.04,0.16-0.03,0.32-0.04,0.48c0.68,0.48,0.97,0.1,1.27-0.41c1.77-2.99,3.9-5.68,6.73-7.74c4.67-3.4,9.89-4.31,15.53-2.51
				c4.17,1.33,6.29,4.64,7.34,8.66c1.05,4.02,1.11,8.09,0.71,12.15c-1.2,12.18-4.18,23.91-7.93,35.42
				c-1.74,5.33-4.07,10.39-7.64,14.74c-3.91,4.76-8.97,7.37-15.23,7.82c-3.38,0.24-6.71,0.05-10.02-0.94
				c-5.22-1.57-8.54-5.04-10.36-10.08c-1.86-5.17-2.28-10.5-2.25-15.87c0.07-13,2.32-25.66,4.89-38.25
				c2.27-11.14,4.71-22.23,8.03-33.08c1.85-6.05,3.9-12.01,6.71-17.66c2.36-4.73,5.22-9.07,9.51-12.29
				c2.89-2.18,6.17-3.46,9.77-3.97c3.71-0.52,7.42-0.48,11.16,0.31c6.9,1.46,11.61,6.19,13.11,13.16c1.39,6.46,0.8,12.8-0.43,19.1
				c-0.66,3.37-1.46,6.7-2.18,10.06c-0.11,0.53-0.32,0.75-0.93,0.74c-5.12-0.03-10.24-0.03-15.36-0.03
				C709.23,491.28,709.17,491.24,709.17,491.24z M676.07,550.68c-0.26,1.15-0.56,2.29-0.78,3.45c-0.12,0.59-0.15,1.21-0.16,1.82
				c-0.05,3.1,1.69,5.15,4.63,5.39c1.45,0.12,2.85-0.26,3.91-1.17c1.75-1.5,3.51-3.04,4.97-4.82c5.14-6.29,9.39-13.23,13.62-20.17
				c2.1-3.45,4.01-7.02,4.91-11.08c0.89-3.98-1.39-6.79-5.37-6.31c-1.41,0.17-2.83,0.71-4.09,1.37c-2.4,1.26-4.25,3.24-6,5.29
				c-3.83,4.49-6.96,9.48-9.85,14.64C679.75,542.86,677.54,546.56,676.07,550.68z"/>
			<path d="M654.45,531.95c2.48,0,4.62,0,6.92,0c-0.34,1.75-0.63,3.44-1,5.12c-0.8,3.71-1.67,7.41-2.44,11.13
				c-0.17,0.81-0.5,0.99-1.27,0.94c-1.58-0.1-3.17-0.1-4.75-0.18c-0.62-0.03-0.85,0.18-0.97,0.8c-1.79,9.23-3.62,18.45-5.44,27.68
				c-0.07,0.36-0.14,0.72-0.23,1.14c-6.21,0-12.44,0-18.78,0c2.28-9.86,4.56-19.69,6.84-29.54c-10.25,0-20.35,0-30.55,0
				c0.58-2.11,1.18-4.21,1.75-6.33c8.2-30.72,16.5-61.41,23.77-92.41c0.21-0.89,0.53-1.21,1.5-1.2c5.06,0.06,10.11,0.03,15.17,0.03
				c0.37,0,0.74,0,1.24,0c-7.3,27.62-15.01,55.03-21.86,82.85c1.87,0,3.58,0,5.29,0c2.43,0,4.85-0.03,7.28,0.02
				c0.7,0.01,0.97-0.19,1.11-0.89c2.62-12.42,5.27-24.84,7.91-37.25c2.76-12.97,3.54-16.1,6.29-29.07c0.4-1.89,0.77-3.79,1.17-5.74
				c5.72,0,11.43,0,17.08,0C664.5,486.59,660.47,504.27,654.45,531.95z"/>
		</g>
		<g>
			<path d="M793.81,531.95c2.48,0,4.62,0,6.92,0c-0.34,1.75-0.63,3.44-1,5.12c-0.8,3.71-1.67,7.41-2.44,11.13
				c-0.17,0.81-0.5,0.99-1.27,0.94c-1.58-0.1-3.17-0.1-4.75-0.18c-0.62-0.03-0.85,0.18-0.97,0.8c-1.79,9.23-3.62,18.45-5.44,27.68
				c-0.07,0.36-0.14,0.72-0.23,1.14c-6.21,0-12.44,0-18.78,0c2.28-9.86,4.56-19.69,6.84-29.54c-10.25,0-20.35,0-30.55,0
				c0.58-2.11,1.18-4.21,1.75-6.33c8.2-30.72,16.5-61.41,23.77-92.41c0.21-0.89,0.53-1.21,1.5-1.2c5.06,0.06,10.11,0.03,15.17,0.03
				c0.37,0,0.74,0,1.24,0c-7.3,27.62-15.01,55.03-21.86,82.85c1.87,0,3.58,0,5.29,0c2.43,0,4.85-0.03,7.28,0.02
				c0.7,0.01,0.97-0.19,1.11-0.89c2.62-12.42,5.27-24.84,7.91-37.25c2.76-12.97,3.54-16.1,6.29-29.07c0.4-1.89,0.77-3.79,1.17-5.74
				c5.72,0,11.43,0,17.08,0C803.86,486.59,799.84,504.27,793.81,531.95z"/>
			<path d="M821.1,521.28c1.08-5.09,2.14-10.07,3.23-15.17c2.29,0,4.65,0.07,6.99-0.02c1.57-0.06,3.16-0.2,4.66-0.56
				c3.09-0.74,5.05-2.92,6.53-5.57c2.21-3.97,3.46-8.33,4.41-12.76c0.91-4.23,1.72-8.5,2.27-12.8c0.27-2.12,0.07-4.37-0.29-6.51
				c-0.4-2.33-2.06-3.52-4.41-3.67c-3.65-0.24-6.12,1.52-7.79,4.52c-1.89,3.39-2.87,7.13-3.73,10.9
				c-1.14,5.07-2.19,10.16-3.23,15.25c-0.14,0.67-0.34,0.78-1.03,0.78c-4.85-0.05-9.7-0.01-14.55,0c-0.23,0-0.46,0.03-0.87,0.06
				c0.36-1.94,0.63-3.8,1.05-5.63c1.38-6.11,2.65-12.24,4.25-18.28c1.39-5.26,3.53-10.22,6.71-14.66c3.9-5.44,9.26-8.46,15.94-9.26
				c4.56-0.55,9.13-0.5,13.65,0.78c6.59,1.86,10.19,6.39,11.41,12.94c0.96,5.13,0.5,10.21-0.28,15.24
				c-1.1,7.14-2.7,14.15-5.53,20.78c-2.14,5.01-5.22,9.29-9.71,12.44c-2.09,1.47-4.51,2.22-7,2.76c-0.7,0.15-1.09,0.43-0.85,1.3
				c2.76,0.46,4.96,1.99,6.87,4.06c2.29,2.5,3.41,5.47,3.85,8.72c0.93,6.75-0.19,13.27-1.61,19.73c-1.29,5.89-2.8,11.73-5.19,17.25
				c-2.05,4.72-4.79,8.94-8.92,12.09c-2.83,2.16-6.1,3.33-9.63,3.82c-5.23,0.72-10.46,0.53-15.64-0.94
				c-6.19-1.76-10.48-6.73-11.45-13.07c-1.02-6.7-0.27-13.23,1.04-19.69c0.86-4.24,2.01-8.42,3.06-12.61
				c0.07-0.29,0.45-0.69,0.7-0.69c5.12-0.01,10.24,0.03,15.37,0.07c0.13,0,0.25,0.05,0.47,0.1c-0.18,0.71-0.34,1.37-0.51,2.04
				c-1.75,6.54-3.01,13.19-3.6,19.97c-0.14,1.64,0.06,3.36,0.35,5.02c0.3,1.74,1.45,2.82,3.22,3.33c3.49,1,6.58-0.03,8.5-2.96
				c1.93-2.94,2.9-6.31,3.86-9.67c1.64-5.73,2.99-11.54,3.52-17.53c0.18-2.02,0.16-4.1-0.11-6.12c-0.46-3.4-2.67-5.36-6.16-5.56
				c-2.89-0.17-5.79-0.13-8.69-0.19C821.85,521.27,821.49,521.28,821.1,521.28z"/>
		</g>
		<g>
			<path d="M943.72,472.59c0.03,6.04-0.49,12.35-1.42,18.61c-2.8,18.95-7.07,37.54-12.52,55.81c-2.03,6.8-4.47,13.43-8,19.57
				c-2.35,4.08-5.11,7.82-9.16,10.4c-3.87,2.46-8.19,3.37-12.81,3.17c-2.64-0.11-5.24-0.47-7.76-1.41c-4.85-1.8-7.8-5.34-9.42-10.12
				c-1.77-5.21-2.08-10.56-1.86-15.9c0.72-17.77,4.28-35.01,8.27-52.15c2.17-9.31,4.57-18.55,7.8-27.52
				c2.08-5.76,4.51-11.34,8.15-16.3c4.8-6.54,11.41-9.37,19.56-9.14c2.74,0.08,5.44,0.45,8.06,1.38c4.15,1.47,6.94,4.32,8.61,8.36
				c1.47,3.54,2.03,7.23,2.33,10.97C943.67,469.63,943.67,470.95,943.72,472.59z M918.54,471.64c-0.23-0.98-0.42-1.98-0.71-2.94
				c-0.17-0.57-0.46-1.13-0.77-1.66c-0.98-1.71-2.68-2.62-4.44-2.13c-1.06,0.29-2.08,0.89-2.95,1.57c-1.3,1.02-1.81,2.58-2.28,4.11
				c-1.49,4.84-1.95,9.88-2.35,14.92c-0.98,12.37-1.12,24.8-1.14,37.23c-0.02,9.8-0.07,19.62,1.41,29.4
				c0.38,2.53,0.94,5.04,2.29,7.29c1.5,2.51,4.55,2.97,6.72,1.11c1.25-1.08,1.98-2.46,2.47-4c1.58-4.99,2.07-10.2,2.42-15.41
				c1.22-17.73,1.48-35.52,1.04-53.34C920.12,482.39,919.77,476.98,918.54,471.64z"/>
			<path d="M941.09,532.87c5.46,0,10.86,0,16.41,0c-0.48,1.87-1.03,3.58-1.34,5.33c-0.98,5.45-1.96,10.9-2.74,16.38
				c-0.24,1.71,0.04,3.55,0.3,5.31c0.3,2.01,1.7,3.09,3.63,3.53c3.56,0.81,6.38-0.3,8.27-3.35c1.91-3.07,2.88-6.54,3.85-10
				c1.6-5.71,2.9-11.5,3.4-17.45c0.16-1.89,0.09-3.84-0.16-5.73c-0.43-3.19-2.72-5.22-6.09-5.43c-2.93-0.18-5.86-0.14-8.79-0.19
				c-0.36-0.01-0.73,0-1.09,0c1.08-5.07,2.14-10.05,3.23-15.17c0.58,0,1.21,0.01,1.83,0c2.53-0.02,5.07,0.08,7.57-0.11
				c4.75-0.37,7.57-3.31,9.48-7.35c2.24-4.74,3.41-9.84,4.5-14.96c0.87-4.08,1.75-8.16,1.63-12.4c-0.03-0.97-0.07-1.96-0.27-2.91
				c-0.65-2.98-2.58-4.36-5.59-4.19c-3.2,0.19-5.3,1.91-6.77,4.55c-1.86,3.33-2.84,7-3.68,10.7c-1.17,5.16-2.21,10.36-3.3,15.55
				c-0.05,0.22-0.12,0.44-0.16,0.58c-5.41,0-10.75,0-16.23,0c0.28-1.52,0.51-3.13,0.87-4.7c1.44-6.4,2.77-12.83,4.43-19.16
				c1.35-5.13,3.47-9.96,6.52-14.32c3.84-5.5,9.16-8.6,15.82-9.45c4.64-0.6,9.33-0.56,13.95,0.77c6.4,1.84,10.5,6.69,11.46,13.26
				c0.83,5.67,0.31,11.21-0.65,16.73c-1.14,6.59-2.67,13.06-5.34,19.18c-2.12,4.87-5.14,9.03-9.48,12.13
				c-2.11,1.51-4.56,2.26-7.07,2.83c-0.86,0.2-0.86,0.21-1.02,1.21c0.92,0.3,1.9,0.48,2.75,0.92c4.03,2.09,6.55,5.39,7.65,9.75
				c1.07,4.22,0.9,8.45,0.4,12.65c-1.06,8.8-3.22,17.3-6.35,25.52c-1.51,3.97-3.68,7.56-6.58,10.68c-3.66,3.93-8.32,5.91-13.66,6.43
				c-4.81,0.47-9.62,0.3-14.35-1.12c-6.36-1.91-10.11-6.19-11.38-12.65c-0.92-4.68-0.63-9.33-0.06-13.97
				C937.69,545.62,939.4,539.22,941.09,532.87z"/>
		</g>
		<g>
			<path d="M1084.67,468.39c-8.23,0-16.47,0-24.81,0c0.41-1.85,0.85-3.68,1.22-5.53c0.89-4.37,1.74-8.76,2.64-13.13
				c0.05-0.24,0.44-0.43,0.7-0.59c0.12-0.07,0.33-0.01,0.5-0.01c13.65,0,27.3,0,40.95,0c0.33,0,0.66,0,1.13,0
				c-0.5,2.12-1,4.11-1.44,6.12c-0.84,3.84-1.63,7.69-2.46,11.53c-0.08,0.35-0.18,0.72-0.36,1.02c-4.48,7.41-7.84,15.39-11.14,23.4
				c-8.24,19.99-14.73,40.61-20.22,61.58c-2.13,8.14-3.92,16.38-5.81,24.58c-0.22,0.97-0.53,1.32-1.59,1.31
				c-5.86-0.06-11.72-0.03-17.59-0.03c-0.17,0-0.33-0.01-0.8-0.04C1055.04,540.43,1067.28,503.45,1084.67,468.39z"/>
			<path d="M1056.82,449.13c-9.95,43.05-19.22,86.15-27.66,129.42c-6.39,0-12.71,0-19.16,0c0.42-1.92,0.84-3.85,1.26-5.78
				c4.27-19.62,27.07-123.67,27.07-123.67S1053.83,449.13,1056.82,449.13z"/>
		</g>
	</g>
</g>
</svg>
